<svg width="30" height="30" viewBox="0 0 30 30" fill="none" xmlns="http://www.w3.org/2000/svg">
<path d="M18.569 6.69356V24.3963H6.69169V6.69356H18.569ZM19.1721 5.0468H6.08856C5.51219 5.0468 5.04492 5.60052 5.04492 6.28187V24.808C5.04492 25.4893 5.51219 26.043 6.08856 26.043H19.1721C19.7485 26.043 20.2157 25.4893 20.2157 24.808V6.28187C20.2157 5.60052 19.7485 5.0468 19.1721 5.0468Z" fill="white"/>
<path d="M15.3578 20.2382V24.3757H9.90286V20.2382H15.3578ZM16.6134 18.5914H8.62868C8.28286 18.5914 8.2561 18.787 8.2561 19.0278V25.584C8.2561 25.8248 8.28491 26.0204 8.62868 26.0204H16.6134C16.9592 26.0204 17.0045 25.8248 17.0045 25.584V19.0278C17.0045 18.787 16.9592 18.5914 16.6134 18.5914ZM24.3532 13.0954V24.3757H20.2384V13.0954H24.3532ZM25.6686 11.4486H18.9086C18.6163 11.4486 18.5937 11.8315 18.5937 12.3049V25.1641C18.5937 25.6375 18.6163 26.0204 18.9086 26.0204H25.6686C25.9609 26.0204 26 25.6375 26 25.1641V12.3049C26 11.8315 25.9609 11.4486 25.6686 11.4486ZM10.9527 9.55482H8.77071C8.31579 9.55482 7.94733 9.18635 7.94733 8.73143C7.94733 8.27651 8.31579 7.90805 8.77071 7.90805H10.9527C11.4076 7.90805 11.7761 8.27651 11.7761 8.73143C11.7761 9.18635 11.4076 9.55482 10.9527 9.55482ZM16.5105 9.55482H14.3285C13.8736 9.55482 13.5052 9.18635 13.5052 8.73143C13.5052 8.27651 13.8736 7.90805 14.3285 7.90805H16.5105C16.9654 7.90805 17.3339 8.27651 17.3339 8.73143C17.3339 9.18635 16.9654 9.55482 16.5105 9.55482ZM10.9527 12.7866H8.77071C8.31579 12.7866 7.94733 12.4181 7.94733 11.9632C7.94733 11.5083 8.31579 11.1398 8.77071 11.1398H10.9527C11.4076 11.1398 11.7761 11.5083 11.7761 11.9632C11.7761 12.4181 11.4076 12.7866 10.9527 12.7866ZM16.5105 12.7866H14.3285C13.8736 12.7866 13.5052 12.4181 13.5052 11.9632C13.5052 11.5083 13.8736 11.1398 14.3285 11.1398H16.5105C16.9654 11.1398 17.3339 11.5083 17.3339 11.9632C17.3339 12.4181 16.9654 12.7866 16.5105 12.7866ZM10.9527 16.0184H8.77071C8.31579 16.0184 7.94733 15.6499 7.94733 15.195C7.94733 14.7401 8.31579 14.3716 8.77071 14.3716H10.9527C11.4076 14.3716 11.7761 14.7401 11.7761 15.195C11.7761 15.6499 11.4076 16.0184 10.9527 16.0184ZM16.5105 16.0184H14.3285C13.8736 16.0184 13.5052 15.6499 13.5052 15.195C13.5052 14.7401 13.8736 14.3716 14.3285 14.3716H16.5105C16.9654 14.3716 17.3339 14.7401 17.3339 15.195C17.3339 15.6499 16.9654 16.0184 16.5105 16.0184Z" fill="white"/>
<path d="M20.7304 16.4301H19.9132C19.4582 16.4301 19.0898 16.0616 19.0898 15.6067C19.0898 15.1518 19.4582 14.7833 19.9132 14.7833H20.7304C21.1853 14.7833 21.5538 15.1518 21.5538 15.6067C21.5538 16.0616 21.1853 16.4301 20.7304 16.4301ZM20.7304 20.1147H19.8452C19.3903 20.1147 19.0219 19.7462 19.0219 19.2913C19.0219 18.8364 19.3903 18.4679 19.8452 18.4679H20.7304C21.1853 18.4679 21.5538 18.8364 21.5538 19.2913C21.5538 19.7462 21.1853 20.1147 20.7304 20.1147ZM20.7304 23.7993H19.9811C19.5262 23.7993 19.1577 23.4309 19.1577 22.9759C19.1577 22.521 19.5262 22.1526 19.9811 22.1526H20.7304C21.1853 22.1526 21.5538 22.521 21.5538 22.9759C21.5538 23.4309 21.1853 23.7993 20.7304 23.7993Z" fill="white"/>
</svg>
