<svg width="32" height="32" viewBox="0 0 32 32" fill="none" xmlns="http://www.w3.org/2000/svg">
<path fill-rule="evenodd" clip-rule="evenodd" d="M17.447 21.5498C17.447 19.0038 19.5109 16.9363 22.0568 16.9363C24.6027 16.9363 26.6666 19.0038 26.6666 21.5498C26.6666 24.0957 24.6027 26.1633 22.0568 26.1633C19.5109 26.1633 17.447 24.0957 17.447 21.5498ZM21.4381 19.2299C21.4381 18.8922 21.7119 18.6184 22.0496 18.6184C22.3873 18.6184 22.661 18.8922 22.661 19.2299V20.9194H24.4432C24.7812 20.9194 25.0552 21.1934 25.0552 21.5314C25.0552 21.8694 24.7812 22.1434 24.4432 22.1434H22.661V23.9308C22.661 24.2685 22.3873 24.5423 22.0496 24.5423C21.7119 24.5423 21.4381 24.2685 21.4381 23.9308V22.1434H19.7515C19.4136 22.1434 19.1396 21.8694 19.1396 21.5314C19.1396 21.1934 19.4136 20.9194 19.7515 20.9194H21.4381V19.2299Z" fill="white"/>
<path fill-rule="evenodd" clip-rule="evenodd" d="M11.0549 6.8536C11.0549 6.01398 11.7338 5.33334 12.5713 5.33334H17.6262C18.4637 5.33334 19.1427 6.01398 19.1427 6.8536V7.86711C19.1427 8.70672 18.4637 9.38737 17.6262 9.38737H12.5713C11.7338 9.38737 11.0549 8.70672 11.0549 7.86711V6.8536ZM6.88832 8.24914C7.46387 7.67215 8.2667 7.46899 9.53841 7.39746V7.86711C9.53841 9.54634 10.8963 10.9076 12.5713 10.9076H17.6262C19.3012 10.9076 20.6591 9.54634 20.6591 7.86711V7.39746C21.9308 7.46899 22.7336 7.67215 23.3092 8.24914C24.1975 9.13969 24.1975 10.573 24.1975 13.4396V16.287C23.5017 15.9804 22.7323 15.8102 21.9232 15.8102C18.8027 15.8102 16.2731 18.3419 16.2731 21.4648C16.2731 23.098 16.965 24.5695 18.0713 25.6017H12.0658C9.20638 25.6017 7.77664 25.6017 6.88832 24.7112C6 23.8206 6 22.3873 6 19.5207V13.4396C6 10.573 6 9.13969 6.88832 8.24914ZM9.28566 13.9482C9.28566 13.5283 9.62513 13.188 10.0439 13.188H10.5494C10.9681 13.188 11.3076 13.5283 11.3076 13.9482C11.3076 14.368 10.9681 14.7083 10.5494 14.7083H10.0439C9.62513 14.7083 9.28566 14.368 9.28566 13.9482ZM12.8241 13.9482C12.8241 13.5283 13.1635 13.188 13.5823 13.188H20.1536C20.5724 13.188 20.9119 13.5283 20.9119 13.9482C20.9119 14.368 20.5724 14.7083 20.1536 14.7083H13.5823C13.1635 14.7083 12.8241 14.368 12.8241 13.9482ZM9.28566 17.4954C9.28566 17.0756 9.62513 16.7353 10.0439 16.7353H10.5494C10.9681 16.7353 11.3076 17.0756 11.3076 17.4954C11.3076 17.9152 10.9681 18.2556 10.5494 18.2556H10.0439C9.62513 18.2556 9.28566 17.9152 9.28566 17.4954ZM12.8241 17.4954C12.8241 17.0756 13.1635 16.7353 13.5823 16.7353L16.1097 16.7353C16.5285 16.7353 16.868 17.0756 16.868 17.4954C16.868 17.9152 16.5285 18.2556 16.1097 18.2556L13.5823 18.2556C13.1635 18.2556 12.8241 17.9152 12.8241 17.4954ZM9.28566 21.0427C9.28566 20.6229 9.62513 20.2826 10.0439 20.2826H10.5494C10.9681 20.2826 11.3076 20.6229 11.3076 21.0427C11.3076 21.4625 10.9681 21.8028 10.5494 21.8028H10.0439C9.62513 21.8028 9.28566 21.4625 9.28566 21.0427ZM12.8241 21.0427C12.8241 20.6229 13.1635 20.2826 13.5823 20.2826L14.952 20.2826C15.3708 20.2826 15.7102 20.6229 15.7102 21.0427C15.7102 21.4625 15.3708 21.8028 14.952 21.8028H13.5823C13.1635 21.8028 12.8241 21.4625 12.8241 21.0427Z" fill="white"/>
</svg>
