<svg width="30" height="30" viewBox="0 0 30 30" fill="none" xmlns="http://www.w3.org/2000/svg">
<path fill-rule="evenodd" clip-rule="evenodd" d="M6.91667 9.33317C6.58515 9.33317 6.2672 9.46487 6.03278 9.69929C5.79836 9.93371 5.66667 10.2516 5.66667 10.5832V23.0832C5.66667 23.4147 5.79836 23.7326 6.03278 23.9671C6.2672 24.2015 6.58515 24.3332 6.91667 24.3332H19.4167C19.5808 24.3332 19.7434 24.3008 19.895 24.238C20.0467 24.1752 20.1845 24.0831 20.3005 23.9671C20.4166 23.851 20.5087 23.7132 20.5715 23.5615C20.6343 23.4099 20.6667 23.2473 20.6667 23.0832V13.4998C20.6667 13.0396 21.0398 12.6665 21.5 12.6665C21.9602 12.6665 22.3333 13.0396 22.3333 13.4998V23.0832C22.3333 23.4662 22.2579 23.8455 22.1113 24.1993C21.9647 24.5532 21.7499 24.8747 21.4791 25.1456C21.2082 25.4164 20.8867 25.6312 20.5328 25.7778C20.179 25.9244 19.7997 25.9998 19.4167 25.9998H6.91667C6.14312 25.9998 5.40125 25.6925 4.85427 25.1456C4.30729 24.5986 4 23.8567 4 23.0832V10.5832C4 9.80962 4.30729 9.06776 4.85427 8.52078C5.40125 7.97379 6.14312 7.6665 6.91667 7.6665H15.6396C16.0998 7.6665 16.4729 8.0396 16.4729 8.49984C16.4729 8.96007 16.0998 9.33317 15.6396 9.33317H6.91667Z" fill="white"/>
<path d="M25.8228 4.22925C25.759 4.15915 25.6816 4.1027 25.5954 4.06333C25.5092 4.02397 25.4159 4.00249 25.3211 4.0002C25.2264 3.99792 25.1321 4.01487 25.0441 4.05004C24.9561 4.0852 24.8761 4.13785 24.809 4.2048L24.269 4.74231C24.2035 4.80782 24.1667 4.89663 24.1667 4.98924C24.1667 5.08184 24.2035 5.17066 24.269 5.23616L24.7641 5.73045C24.7965 5.76305 24.8351 5.78893 24.8776 5.80659C24.9201 5.82424 24.9656 5.83333 25.0116 5.83333C25.0576 5.83333 25.1032 5.82424 25.1456 5.80659C25.1881 5.78893 25.2267 5.76305 25.2592 5.73045L25.7857 5.20647C26.052 4.94055 26.0769 4.5074 25.8228 4.22925Z" fill="white"/>
<path d="M22.7768 5.978L12.8453 15.8898C12.7851 15.9498 12.7414 16.0242 12.7183 16.106L12.2589 17.474C12.2479 17.5111 12.2471 17.5505 12.2566 17.588C12.2661 17.6255 12.2856 17.6598 12.313 17.6872C12.3404 17.7145 12.3747 17.734 12.4122 17.7436C12.4497 17.7531 12.4891 17.7523 12.5262 17.7413L13.8934 17.282C13.9752 17.2589 14.0496 17.2151 14.1096 17.1549L24.0235 7.2244C24.1152 7.13172 24.1667 7.0066 24.1667 6.87622C24.1667 6.74584 24.1152 6.62073 24.0235 6.52804L23.4761 5.978C23.3833 5.88546 23.2575 5.8335 23.1265 5.8335C22.9954 5.8335 22.8697 5.88546 22.7768 5.978Z" fill="white"/>
</svg>
