<svg width="30" height="30" viewBox="0 0 30 30" fill="none" xmlns="http://www.w3.org/2000/svg">
<path d="M27.2688 12.2615H17.7296V2.73154C17.7296 1.22305 16.5123 0 15.0036 0C13.4949 0 12.2783 1.22305 12.2783 2.7322V12.2681H2.73454C1.22585 12.2681 -0.000659764 13.4912 1.07293e-06 15.0003C-0.000659764 15.7542 0.303986 16.4454 0.797631 16.939C1.29194 17.4339 1.97392 17.7464 2.72727 17.7464H12.2783V27.2691C12.2783 28.0237 12.5777 28.7069 13.072 29.1998C13.5663 29.6941 14.2463 30 15.001 30C16.509 30 17.7296 28.777 17.7296 27.2691V17.7457H27.2688C28.7775 17.7457 30.0007 16.5121 30 15.0036C29.9993 13.4958 28.7761 12.2615 27.2688 12.2615Z" fill="white"/>
</svg>
