<svg width="30" height="30" viewBox="0 0 30 30" fill="none" xmlns="http://www.w3.org/2000/svg">
<path d="M23.7553 6.22284L21.8027 4.27025C21.4764 3.94386 20.9472 3.94386 20.6208 4.27025C20.2944 4.59665 20.2944 5.12584 20.6208 5.45219L21.9824 6.81383L21.497 7.2993L20.9446 6.74693C20.6183 6.42054 20.089 6.42054 19.7627 6.74693C19.4363 7.07328 19.4363 7.60247 19.7627 7.92887L20.315 8.48124L19.8296 8.96672L18.4679 7.60509C18.1416 7.27873 17.6124 7.27873 17.286 7.60509C16.9596 7.93148 16.9596 8.46063 17.286 8.7871L18.6476 10.1487L14.5189 14.2774C12.4229 12.7509 9.46192 12.9321 7.57199 14.8221C5.4761 16.9179 5.47591 20.3101 7.57199 22.4063C9.66285 24.4972 13.0652 24.4973 15.1562 22.4063C17.0461 20.5163 17.2273 17.5553 15.7008 15.4594L23.7554 7.40482C24.0815 7.07866 24.0817 6.54915 23.7553 6.22284ZM13.9742 21.2242C12.535 22.6635 10.1931 22.6635 8.75389 21.2242C7.31125 19.7817 7.31113 17.4467 8.75389 16.004C10.1931 14.5647 12.535 14.5647 13.9741 16.004C15.4134 17.4432 15.4134 19.785 13.9742 21.2242Z" fill="white"/>
</svg>
