<svg width="70" height="49" viewBox="0 0 70 49" fill="none" xmlns="http://www.w3.org/2000/svg">
<path d="M8.64844 30.1719V32H2.59375V30.1719H8.64844ZM3.35938 20.625V32H1.01562V20.625H3.35938ZM7.85938 25.2578V27.0391H2.59375V25.2578H7.85938ZM8.64062 20.625V22.4609H2.59375V20.625H8.64062ZM14.4375 30.0938V26.3281C14.4375 26.0573 14.3932 25.8255 14.3047 25.6328C14.2161 25.4349 14.0781 25.2812 13.8906 25.1719C13.7083 25.0625 13.4714 25.0078 13.1797 25.0078C12.9297 25.0078 12.7135 25.0521 12.5312 25.1406C12.349 25.224 12.2083 25.3464 12.1094 25.5078C12.0104 25.6641 11.9609 25.849 11.9609 26.0625H9.71094C9.71094 25.7031 9.79427 25.362 9.96094 25.0391C10.1276 24.7161 10.3698 24.4323 10.6875 24.1875C11.0052 23.9375 11.3828 23.7422 11.8203 23.6016C12.263 23.4609 12.7578 23.3906 13.3047 23.3906C13.9609 23.3906 14.5443 23.5 15.0547 23.7188C15.5651 23.9375 15.9661 24.2656 16.2578 24.7031C16.5547 25.1406 16.7031 25.6875 16.7031 26.3438V29.9609C16.7031 30.4245 16.7318 30.8047 16.7891 31.1016C16.8464 31.3932 16.9297 31.6484 17.0391 31.8672V32H14.7656C14.6562 31.7708 14.5729 31.4844 14.5156 31.1406C14.4635 30.7917 14.4375 30.4427 14.4375 30.0938ZM14.7344 26.8516L14.75 28.125H13.4922C13.1953 28.125 12.9375 28.1589 12.7188 28.2266C12.5 28.2943 12.3203 28.3906 12.1797 28.5156C12.0391 28.6354 11.9349 28.776 11.8672 28.9375C11.8047 29.099 11.7734 29.276 11.7734 29.4688C11.7734 29.6615 11.8177 29.8359 11.9062 29.9922C11.9948 30.1432 12.1224 30.263 12.2891 30.3516C12.4557 30.4349 12.651 30.4766 12.875 30.4766C13.2135 30.4766 13.5078 30.4089 13.7578 30.2734C14.0078 30.138 14.2005 29.9714 14.3359 29.7734C14.4766 29.5755 14.5495 29.388 14.5547 29.2109L15.1484 30.1641C15.0651 30.3776 14.9505 30.599 14.8047 30.8281C14.6641 31.0573 14.4844 31.2734 14.2656 31.4766C14.0469 31.6745 13.7839 31.8385 13.4766 31.9688C13.1693 32.0938 12.8047 32.1562 12.3828 32.1562C11.8464 32.1562 11.3594 32.0495 10.9219 31.8359C10.4896 31.6172 10.1458 31.3177 9.89062 30.9375C9.64062 30.5521 9.51562 30.1146 9.51562 29.625C9.51562 29.1823 9.59896 28.7891 9.76562 28.4453C9.93229 28.1016 10.1771 27.8125 10.5 27.5781C10.8281 27.3385 11.237 27.1589 11.7266 27.0391C12.2161 26.9141 12.7839 26.8516 13.4297 26.8516H14.7344ZM22.5781 23.5469V25.1406H17.6562V23.5469H22.5781ZM18.875 21.4609H21.125V29.4531C21.125 29.6979 21.1562 29.8854 21.2188 30.0156C21.2865 30.1458 21.3854 30.237 21.5156 30.2891C21.6458 30.3359 21.8099 30.3594 22.0078 30.3594C22.1484 30.3594 22.2734 30.3542 22.3828 30.3438C22.4974 30.3281 22.5938 30.3125 22.6719 30.2969L22.6797 31.9531C22.487 32.0156 22.2786 32.0651 22.0547 32.1016C21.8307 32.138 21.5833 32.1562 21.3125 32.1562C20.8177 32.1562 20.3854 32.0755 20.0156 31.9141C19.651 31.7474 19.3698 31.4818 19.1719 31.1172C18.974 30.7526 18.875 30.2734 18.875 29.6797V21.4609ZM26.7422 30.1953L29.0078 20.625H30.2734L30.5625 22.2188L28.1484 32H26.7891L26.7422 30.1953ZM25.5781 20.625L27.4531 30.1953L27.2969 32H25.7812L23.2578 20.625H25.5781ZM32.5547 30.1562L34.4062 20.625H36.7266L34.2109 32H32.6953L32.5547 30.1562ZM30.9844 20.625L33.2656 30.2344L33.2031 32H31.8438L29.4141 22.2109L29.7266 20.625H30.9844ZM40.2344 23.5469V32H37.9766V23.5469H40.2344ZM37.8359 21.3438C37.8359 21.0156 37.9505 20.7448 38.1797 20.5312C38.4089 20.3177 38.7161 20.2109 39.1016 20.2109C39.4818 20.2109 39.7865 20.3177 40.0156 20.5312C40.25 20.7448 40.3672 21.0156 40.3672 21.3438C40.3672 21.6719 40.25 21.9427 40.0156 22.1562C39.7865 22.3698 39.4818 22.4766 39.1016 22.4766C38.7161 22.4766 38.4089 22.3698 38.1797 22.1562C37.9505 21.9427 37.8359 21.6719 37.8359 21.3438ZM46.6641 29.6641C46.6641 29.5026 46.6172 29.3568 46.5234 29.2266C46.4297 29.0964 46.2552 28.9766 46 28.8672C45.75 28.7526 45.388 28.6484 44.9141 28.5547C44.487 28.4609 44.0885 28.3438 43.7188 28.2031C43.3542 28.0573 43.0365 27.8828 42.7656 27.6797C42.5 27.4766 42.2917 27.237 42.1406 26.9609C41.9896 26.6797 41.9141 26.3594 41.9141 26C41.9141 25.6458 41.9896 25.3125 42.1406 25C42.2969 24.6875 42.5182 24.4115 42.8047 24.1719C43.0964 23.9271 43.4505 23.737 43.8672 23.6016C44.2891 23.4609 44.763 23.3906 45.2891 23.3906C46.0234 23.3906 46.6536 23.5078 47.1797 23.7422C47.7109 23.9766 48.1172 24.2995 48.3984 24.7109C48.6849 25.1172 48.8281 25.5807 48.8281 26.1016H46.5781C46.5781 25.8828 46.5312 25.6875 46.4375 25.5156C46.349 25.3385 46.2083 25.2005 46.0156 25.1016C45.8281 24.9974 45.5833 24.9453 45.2812 24.9453C45.0312 24.9453 44.8151 24.9896 44.6328 25.0781C44.4505 25.1615 44.3099 25.276 44.2109 25.4219C44.1172 25.5625 44.0703 25.7188 44.0703 25.8906C44.0703 26.0208 44.0964 26.138 44.1484 26.2422C44.2057 26.3411 44.2969 26.4323 44.4219 26.5156C44.5469 26.599 44.7083 26.6771 44.9062 26.75C45.1094 26.8177 45.3594 26.8802 45.6562 26.9375C46.2656 27.0625 46.8099 27.2266 47.2891 27.4297C47.7682 27.6276 48.1484 27.8984 48.4297 28.2422C48.7109 28.5807 48.8516 29.026 48.8516 29.5781C48.8516 29.9531 48.7682 30.2969 48.6016 30.6094C48.4349 30.9219 48.1953 31.1953 47.8828 31.4297C47.5703 31.6589 47.1953 31.8385 46.7578 31.9688C46.3255 32.0938 45.8385 32.1562 45.2969 32.1562C44.5104 32.1562 43.8438 32.0156 43.2969 31.7344C42.7552 31.4531 42.3438 31.0964 42.0625 30.6641C41.7865 30.2266 41.6484 29.7786 41.6484 29.3203H43.7812C43.7917 29.6276 43.8698 29.875 44.0156 30.0625C44.1667 30.25 44.3568 30.3854 44.5859 30.4688C44.8203 30.5521 45.0729 30.5938 45.3438 30.5938C45.6354 30.5938 45.8776 30.5547 46.0703 30.4766C46.263 30.3932 46.4089 30.2839 46.5078 30.1484C46.612 30.0078 46.6641 29.8464 46.6641 29.6641ZM54.2031 32.1562C53.5469 32.1562 52.9583 32.0521 52.4375 31.8438C51.9167 31.6302 51.474 31.3359 51.1094 30.9609C50.75 30.5859 50.474 30.151 50.2812 29.6562C50.0885 29.1562 49.9922 28.625 49.9922 28.0625V27.75C49.9922 27.1094 50.0833 26.5234 50.2656 25.9922C50.4479 25.4609 50.7083 25 51.0469 24.6094C51.3906 24.2188 51.8073 23.9193 52.2969 23.7109C52.7865 23.4974 53.3385 23.3906 53.9531 23.3906C54.5521 23.3906 55.0833 23.4896 55.5469 23.6875C56.0104 23.8854 56.3984 24.1667 56.7109 24.5312C57.0286 24.8958 57.2682 25.3333 57.4297 25.8438C57.5911 26.349 57.6719 26.9115 57.6719 27.5312V28.4688H50.9531V26.9688H55.4609V26.7969C55.4609 26.4844 55.4036 26.2057 55.2891 25.9609C55.1797 25.7109 55.013 25.513 54.7891 25.3672C54.5651 25.2214 54.2786 25.1484 53.9297 25.1484C53.6328 25.1484 53.3776 25.2135 53.1641 25.3438C52.9505 25.474 52.776 25.6562 52.6406 25.8906C52.5104 26.125 52.4115 26.401 52.3438 26.7188C52.2812 27.0312 52.25 27.375 52.25 27.75V28.0625C52.25 28.401 52.2969 28.7135 52.3906 29C52.4896 29.2865 52.6276 29.5339 52.8047 29.7422C52.987 29.9505 53.2057 30.112 53.4609 30.2266C53.7214 30.3411 54.0156 30.3984 54.3438 30.3984C54.75 30.3984 55.1276 30.3203 55.4766 30.1641C55.8307 30.0026 56.1354 29.7604 56.3906 29.4375L57.4844 30.625C57.3073 30.8802 57.0651 31.125 56.7578 31.3594C56.4557 31.5938 56.0911 31.7865 55.6641 31.9375C55.237 32.0833 54.75 32.1562 54.2031 32.1562Z" fill="#F1FAEE"/>
<path d="M64.3562 34.0717C63.7931 35.1008 62.7001 35.8005 61.4465 35.8005C60.0736 35.8005 58.8931 34.9613 58.3907 33.769L48.6558 36.9474H67.0118L64.3562 34.0717Z" fill="#F1FAEE"/>
<path d="M47.7778 44.7637C47.7778 45.5317 48.4003 46.1541 49.1682 46.1541H65.8319C66.5998 46.1541 67.2223 45.5317 67.2223 44.7637V42.7554H47.7778V44.7637Z" fill="#F1FAEE"/>
<path d="M67.2223 38.0522H47.7778V41.293H67.2223V38.0522Z" fill="#F1FAEE"/>
<path d="M61.4469 34.6956C62.6672 34.6956 63.6565 33.7062 63.6565 32.486C63.6565 31.6006 63.1357 30.8374 62.3839 30.4848C62.5035 30.1593 62.6563 29.8135 62.849 29.4837C63.3486 28.629 64.1179 27.8826 65.2818 27.8826C65.5869 27.8826 65.8342 27.6354 65.8342 27.3302C65.8342 27.0251 65.5869 26.7778 65.2818 26.7778C63.79 26.7778 62.5719 27.6096 61.748 29.1858C61.5624 29.5403 61.4093 29.9079 61.2808 30.2833C60.1381 30.3683 59.2373 31.3216 59.2373 32.486C59.2373 33.7062 60.2266 34.6956 61.4469 34.6956ZM60.1199 31.8583C60.277 31.5448 60.5223 31.2891 60.829 31.119C61.0914 30.9733 61.4304 31.0645 61.58 31.3342C61.728 31.6009 61.6316 31.9372 61.3649 32.0851C61.26 32.1433 61.173 32.2333 61.1163 32.3387C61.1136 32.3437 61.1101 32.3482 61.1076 32.3532C61.0107 32.5466 60.8158 32.6583 60.6133 32.6583C60.2054 32.6584 59.9353 32.2266 60.1199 31.8583Z" fill="#F1FAEE"/>
<g clip-path="url(#clip0_283_43)">
<path d="M37.3157 9.11998C36.1356 10.2088 35.3166 11.5315 35.0172 12.867C34.9292 13.2604 34.5799 13.5278 34.1931 13.5278C34.1318 13.5278 34.0697 13.521 34.0075 13.5071C33.5518 13.405 33.2653 12.9528 33.3674 12.4974C33.6921 11.0487 34.5038 9.58013 35.726 8.31339C34.9394 7.97701 34.1039 7.70589 33.2311 7.50368C32.6463 7.78891 32.1499 8.09756 31.7421 8.39134C30.0837 9.58511 28.9205 11.2164 28.5504 12.867C28.4623 13.2604 28.1132 13.5278 27.7263 13.5278C27.665 13.5278 27.603 13.521 27.5408 13.5071C27.085 13.405 26.7986 12.9528 26.9006 12.4974C27.3337 10.5653 28.6334 8.59702 30.6184 7.12029C30.2497 7.0962 29.877 7.08301 29.5004 7.08301C29.0723 7.08301 28.6497 7.10068 28.2321 7.1317C27.2606 7.50351 26.4796 7.9634 25.8852 8.39134C24.2268 9.58511 23.0635 11.2164 22.6936 12.867C22.6055 13.2604 22.2564 13.5278 21.8694 13.5278C21.8083 13.5278 21.746 13.521 21.6838 13.5071C21.2282 13.405 20.9417 12.9528 21.0439 12.4974C21.3759 11.0155 22.2175 9.51275 23.4868 8.22648C20.6652 9.38011 18.4383 11.344 17.2706 13.8373C16.8547 14.725 16.9216 15.764 17.4481 16.5911C17.9744 17.4183 18.887 17.9171 19.8674 17.9171H39.1335C40.1134 17.9171 41.0252 17.4166 41.5514 16.5899C42.0775 15.7632 42.1458 14.7247 41.7302 13.8371C40.824 11.9025 39.2801 10.2864 37.3157 9.11998Z" fill="#F1FAEE"/>
</g>
<defs>
<clipPath id="clip0_283_43">
<rect width="25" height="25" fill="white" transform="translate(17)"/>
</clipPath>
</defs>
</svg>
