<svg width="30" height="30" viewBox="0 0 30 30" fill="none" xmlns="http://www.w3.org/2000/svg">
<path d="M12.5 5C11.6716 5 11 5.67157 11 6.5V7.5C11 8.32843 11.6716 9 12.5 9H17.5C18.3284 9 19 8.32843 19 7.5V6.5C19 5.67157 18.3284 5 17.5 5H12.5Z" fill="white"/>
<path fill-rule="evenodd" clip-rule="evenodd" d="M9.5 7.03662C8.24209 7.10719 7.44798 7.30764 6.87868 7.87694C6 8.75562 6 10.1698 6 12.9983V18.9983C6 21.8267 6 23.2409 6.87868 24.1196C7.75736 24.9983 9.17157 24.9983 12 24.9983H18C20.8284 24.9983 22.2426 24.9983 23.1213 24.1196C24 23.2409 24 21.8267 24 18.9983V12.9983C24 10.1698 24 8.75562 23.1213 7.87694C22.552 7.30764 21.7579 7.10719 20.5 7.03662V7.5C20.5 9.15685 19.1569 10.5 17.5 10.5H12.5C10.8431 10.5 9.5 9.15685 9.5 7.5V7.03662ZM10 12.75C9.58579 12.75 9.25 13.0858 9.25 13.5C9.25 13.9142 9.58579 14.25 10 14.25H10.5C10.9142 14.25 11.25 13.9142 11.25 13.5C11.25 13.0858 10.9142 12.75 10.5 12.75H10ZM13.5 12.75C13.0858 12.75 12.75 13.0858 12.75 13.5C12.75 13.9142 13.0858 14.25 13.5 14.25H20C20.4142 14.25 20.75 13.9142 20.75 13.5C20.75 13.0858 20.4142 12.75 20 12.75H13.5ZM10 16.25C9.58579 16.25 9.25 16.5858 9.25 17C9.25 17.4142 9.58579 17.75 10 17.75H10.5C10.9142 17.75 11.25 17.4142 11.25 17C11.25 16.5858 10.9142 16.25 10.5 16.25H10ZM13.5 16.25C13.0858 16.25 12.75 16.5858 12.75 17C12.75 17.4142 13.0858 17.75 13.5 17.75H20C20.4142 17.75 20.75 17.4142 20.75 17C20.75 16.5858 20.4142 16.25 20 16.25H13.5ZM10 19.75C9.58579 19.75 9.25 20.0858 9.25 20.5C9.25 20.9142 9.58579 21.25 10 21.25H10.5C10.9142 21.25 11.25 20.9142 11.25 20.5C11.25 20.0858 10.9142 19.75 10.5 19.75H10ZM13.5 19.75C13.0858 19.75 12.75 20.0858 12.75 20.5C12.75 20.9142 13.0858 21.25 13.5 21.25H20C20.4142 21.25 20.75 20.9142 20.75 20.5C20.75 20.0858 20.4142 19.75 20 19.75H13.5Z" fill="white"/>
</svg>
